<?xml version="1.0" encoding="utf-8"?>
<!-- Generator: Adobe Illustrator 26.5.0, SVG Export Plug-In . SVG Version: 6.00 Build 0)  -->
<svg version="1.1" id="レイヤー_1" xmlns="http://www.w3.org/2000/svg" xmlns:xlink="http://www.w3.org/1999/xlink" x="0px"
	 y="0px" viewBox="0 0 700 350" style="enable-background:new 0 0 700 350;" xml:space="preserve">
<style type="text/css">
	.st0{fill:#30076B;}
	.st1{fill:#836AFF;}
	.st2{font-family:'Rubik-Bold';}
	.st3{font-size:46px;}
	.st4{fill:none;stroke:#000000;stroke-width:4;stroke-miterlimit:10;}
</style>
<g>
	<path class="st0" d="M329.6,215.5c-11.1,0-20-9-20-20v-40.8c0-11.1,9-20,20-20h40.8c11.1,0,20,9,20,20v40.8c0,11.1-9,20-20,20
		H329.6z"/>
	<path d="M370.4,135c10.8,0,19.5,8.8,19.5,19.5v40.8c0,10.8-8.8,19.5-19.5,19.5h-40.8c-10.8,0-19.5-8.8-19.5-19.5v-40.8
		c0-10.8,8.8-19.5,19.5-19.5H370.4 M370.4,134h-40.8c-11.3,0-20.5,9.2-20.5,20.5v40.8c0,11.3,9.2,20.5,20.5,20.5h40.8
		c11.3,0,20.5-9.2,20.5-20.5v-40.8C391,143.2,381.8,134,370.4,134L370.4,134z"/>
</g>
<text transform="matrix(1 0 0 1 320.8704 191.2764)" class="st1 st2 st3">Ae</text>
<path class="st4" d="M263.7,107.2l4.4,33.2c13.5-31.9,45.1-54.3,81.8-54.3c36.5,0,67.8,22,81.5,53.4"/>
<path class="st4" d="M441.5,239.7l-9.6-30.1c-13.5,31.9-45.1,54.3-81.8,54.3c-36,0-66.9-21.4-80.9-52.1"/>
<text transform="matrix(1 0 0 1 173.089 191.2764)" class="st2 st3">Win</text>
<text transform="matrix(1 0 0 1 449.1755 191.2764)" class="st2 st3">Mac</text>
</svg>
